<svg width="32" height="32" viewBox="0 0 32 32" fill="none" xmlns="http://www.w3.org/2000/svg">
<path d="M5.89296 27.4386C5.70797 27.4383 5.52507 27.3995 5.3559 27.3247C5.18672 27.2498 5.03497 27.1406 4.91029 27.004C4.78336 26.8685 4.6865 26.7077 4.62606 26.5321C4.56563 26.3566 4.54299 26.1702 4.55962 25.9853L4.88629 22.3933L19.977 7.30796L24.693 12.0226L9.60629 27.1066L6.01429 27.4333C5.97395 27.437 5.93346 27.4388 5.89296 27.4386V27.4386ZM25.6343 11.08L20.9196 6.36529L23.7476 3.53729C23.8715 3.41332 24.0185 3.31498 24.1804 3.24788C24.3422 3.18078 24.5157 3.14624 24.691 3.14624C24.8662 3.14624 25.0397 3.18078 25.2015 3.24788C25.3634 3.31498 25.5105 3.41332 25.6343 3.53729L28.4623 6.36529C28.5863 6.48912 28.6846 6.63617 28.7517 6.79804C28.8188 6.9599 28.8533 7.1334 28.8533 7.30862C28.8533 7.48384 28.8188 7.65735 28.7517 7.81921C28.6846 7.98107 28.5863 8.12812 28.4623 8.25196L25.6356 11.0786L25.6343 11.08V11.08Z" fill="#FF0062"/>
</svg>
