<svg width="40" height="34" viewBox="0 0 40 34" fill="none" xmlns="http://www.w3.org/2000/svg">
<path d="M36.1285 20.7118L37.0475 20.923C35.1727 28.6226 28.1639 34 20 34C10.7086 34 3.10456 26.9353 2.5395 18.0523L0.667322 19.8694L0 19.2204L2.95641 16.3523L5.91151 19.2204L5.24418 19.8694L3.48869 18.1656C4.10882 26.49 11.2671 33.0838 20 33.0838C27.7234 33.0838 34.3546 27.9966 36.1285 20.7118ZM20 0.916167C28.7329 0.916167 35.8912 7.51003 36.51 15.8344L34.7558 14.1319L34.0872 14.7796L37.0436 17.6477L40 14.7783L39.3314 14.1306L37.4605 15.9464C36.8954 7.06467 29.2927 0 20 0C11.8401 0 4.8312 5.37739 2.95641 13.077L3.87545 13.2882C5.6493 6.00344 12.2793 0.916167 20 0.916167ZM24.1337 9.53705C25.3989 9.53705 26.5893 10.0155 27.4861 10.8833C28.4038 11.7753 28.8954 12.9587 28.8732 14.2197C28.8509 15.4145 28.3592 16.5406 27.4861 17.3894L20 24.6538L12.5152 17.3894C11.6264 16.5266 11.1334 15.3789 11.1268 14.1573C11.1216 12.9205 11.6146 11.7588 12.5152 10.8846C13.4081 10.018 14.5946 9.53959 15.8571 9.53705C15.8597 9.53705 15.8623 9.53705 15.865 9.53705C17.1314 9.53705 18.3219 10.0142 19.216 10.8846L20 11.6442L20.784 10.8846C21.6781 10.0155 22.8686 9.53705 24.1337 9.53705ZM26.8174 11.531C25.3832 10.1402 22.8843 10.1402 21.45 11.531L20 12.9396L18.55 11.531C17.8328 10.8362 16.8797 10.4519 15.8663 10.4519C15.8637 10.4519 15.8623 10.4519 15.8597 10.4519C14.8489 10.4532 13.8984 10.8375 13.1826 11.531C12.4615 12.2296 12.0669 13.161 12.0708 14.1522C12.076 15.1308 12.4707 16.0495 13.1826 16.7404L20 23.3585L26.8174 16.7404C27.5162 16.0609 27.9109 15.16 27.9279 14.2019C27.9476 13.1928 27.5529 12.2448 26.8174 11.531Z" fill="white"/>
</svg>
