<svg width="29" height="28" viewBox="0 0 29 28" fill="none" xmlns="http://www.w3.org/2000/svg">
<path d="M12.9414 0.975958L9.4018 8.21343L1.48504 9.38172C1.16483 9.42848 0.863995 9.56472 0.616561 9.77503C0.369126 9.98534 0.184973 10.2613 0.0849367 10.5717C-0.0150996 10.8821 -0.0270251 11.2146 0.0505094 11.5315C0.128044 11.8484 0.291943 12.1371 0.523663 12.3649L6.22636 18.0006L4.90083 25.9581C4.84501 26.2796 4.87985 26.6104 5.00138 26.9128C5.12292 27.2153 5.32626 27.4772 5.5882 27.6687C5.85015 27.8602 6.16017 27.9736 6.4829 27.9959C6.80563 28.0183 7.12809 27.9486 7.41351 27.795L14.5 24.0404L21.5865 27.795C21.8722 27.9456 22.1938 28.0129 22.5153 27.9893C22.8368 27.9656 23.1454 27.852 23.4064 27.6612C23.6674 27.4704 23.8705 27.2099 23.9929 26.9091C24.1153 26.6082 24.1521 26.2789 24.0992 25.9581L22.7445 18.0006L28.4763 12.3649C28.7081 12.1371 28.872 11.8484 28.9495 11.5315C29.027 11.2146 29.0151 10.8821 28.9151 10.5717C28.815 10.2613 28.6309 9.98534 28.3834 9.77503C28.136 9.56472 27.8352 9.42848 27.515 9.38172L19.5909 8.21343L16.0513 0.975958C15.9083 0.683047 15.6868 0.436387 15.412 0.263902C15.1372 0.0914175 14.82 0 14.4964 0C14.1727 0 13.8555 0.0914175 13.5807 0.263902C13.3059 0.436387 13.0844 0.683047 12.9414 0.975958V0.975958Z" fill="white"/>
</svg>
