<svg width="40" height="32" viewBox="0 0 40 32" fill="none" xmlns="http://www.w3.org/2000/svg">
<path d="M37.5995 20C37.538 19.7538 37.538 19.4462 37.7226 19.2615C38.7688 17.3538 39.3842 15.2 39.3842 12.9231C39.3842 5.78461 33.2919 0 25.8457 0C22.6457 0 19.6919 1.10769 17.3534 2.89231C25.0457 4.55385 30.7688 11.2 30.7688 19.0769C30.7688 21.2923 30.338 23.4462 29.4765 25.3538C30.7072 25.0462 31.8765 24.5538 32.9842 23.8769C33.2303 23.7538 33.4765 23.6923 33.7226 23.8154L37.6611 25.2308C38.338 25.4769 39.0149 24.8 38.8303 24.0615L37.5995 20Z" fill="white"/>
<path d="M13.5385 6.15385C6.09231 6.15385 0 11.9385 0 19.0769C0 21.3538 0.615384 23.5077 1.72308 25.4154C1.84615 25.6615 1.90769 25.9077 1.84615 26.1538L0.553846 30.2769C0.307692 31.0154 0.984615 31.6923 1.72308 31.4462L5.66154 30.0308C5.90769 29.9692 6.21538 29.9692 6.4 30.0923C8.49231 31.3231 10.8923 32 13.5385 32C20.9846 32 27.0769 26.2154 27.0769 19.0769C27.0769 11.9385 20.9846 6.15385 13.5385 6.15385ZM6.15385 21.5385C4.8 21.5385 3.69231 20.4308 3.69231 19.0769C3.69231 17.7231 4.8 16.6154 6.15385 16.6154C7.50769 16.6154 8.61538 17.7231 8.61538 19.0769C8.61538 20.4308 7.50769 21.5385 6.15385 21.5385ZM13.5385 21.5385C12.1846 21.5385 11.0769 20.4308 11.0769 19.0769C11.0769 17.7231 12.1846 16.6154 13.5385 16.6154C14.8923 16.6154 16 17.7231 16 19.0769C16 20.4308 14.8923 21.5385 13.5385 21.5385ZM20.9231 21.5385C19.5692 21.5385 18.4615 20.4308 18.4615 19.0769C18.4615 17.7231 19.5692 16.6154 20.9231 16.6154C22.2769 16.6154 23.3846 17.7231 23.3846 19.0769C23.3846 20.4308 22.2769 21.5385 20.9231 21.5385Z" fill="white"/>
</svg>
