<svg width="41" height="42" viewBox="0 0 41 42" fill="none" xmlns="http://www.w3.org/2000/svg">
<path d="M16.1519 2.54703C18.8432 2.54457 21.4748 3.34039 23.7137 4.83382C25.9527 6.32724 27.6984 8.45117 28.73 10.9369C29.7616 13.4227 30.0328 16.1585 29.5093 18.7984C28.9857 21.4383 27.691 23.8637 25.7888 25.7676C23.8866 27.6715 21.4625 28.9685 18.8231 29.4944C16.1836 30.0204 13.4475 29.7517 10.9608 28.7223C8.47415 27.693 6.34863 25.9492 4.85316 23.7116C3.35769 21.4741 2.55946 18.8432 2.55946 16.1519C2.57578 12.5508 4.01268 9.10173 6.55787 6.55421C9.10307 4.00669 12.5509 2.56663 16.1519 2.54703V2.54703ZM16.1519 0C12.9574 0 9.83455 0.947292 7.17839 2.72208C4.52222 4.49688 2.452 7.01946 1.2295 9.97083C0.00699859 12.9222 -0.312863 16.1698 0.310361 19.303C0.933586 22.4361 2.4719 25.3141 4.73079 27.573C6.98967 29.8319 9.86766 31.3702 13.0008 31.9934C16.134 32.6166 19.3816 32.2968 22.333 31.0743C25.2843 29.8518 27.8069 27.7816 29.5817 25.1254C31.3565 22.4692 32.3038 19.3464 32.3038 16.1519C32.3038 11.8681 30.6021 7.75985 27.573 4.73078C24.5439 1.70171 20.4356 0 16.1519 0Z" fill="white"/>
<path d="M39.0132 37.7832L29.8563 28.5642L28.092 30.3161L37.2489 39.5351C37.364 39.6509 37.5007 39.743 37.6513 39.806C37.8019 39.869 37.9634 39.9017 38.1267 39.9023C38.2899 39.9028 38.4517 39.8713 38.6027 39.8093C38.7538 39.7474 38.8911 39.6563 39.007 39.5413C39.1228 39.4262 39.2149 39.2895 39.2779 39.1389C39.3409 38.9883 39.3736 38.8268 39.3742 38.6635C39.3748 38.5003 39.3432 38.3385 39.2813 38.1875C39.2193 38.0364 39.1282 37.899 39.0132 37.7832Z" fill="white"/>
<g clip-path="url(#clip0_1_203)">
<path d="M21.6595 13.015C21.6558 12.2771 21.0603 11.6767 20.332 11.6767C20.1697 11.6767 18.1953 11.6767 17.3147 11.6767C16.5982 11.6767 16.0103 12.2577 15.9879 12.9792L15.7965 14.6435C16.5855 16.7496 16.6231 16.7856 16.6625 16.9352C17.041 13.6455 17.0827 13.2777 17.1091 13.0208C17.1094 12.9586 17.1593 12.9084 17.2207 12.9086C17.282 12.9087 17.3316 12.9592 17.3317 13.0214C17.3317 14.3797 17.3319 21.9543 17.3319 22.576C17.3319 22.9528 17.6333 23.2581 18.0051 23.2581C18.3768 23.2581 18.6782 22.9528 18.6782 22.576V17.124H18.9688V22.576C18.9688 22.9528 19.2702 23.2581 19.642 23.2581C20.0137 23.2581 20.3151 22.9528 20.3151 22.576C20.3151 13.6723 20.3032 18.5557 20.3029 13.0207C20.3029 12.9553 20.3551 12.9021 20.4196 12.9017C20.4842 12.9014 20.5369 12.954 20.5376 13.0194L20.5277 17.1925C20.527 17.5064 20.7775 17.7615 21.0873 17.7623C21.0878 17.7623 21.0882 17.7623 21.0887 17.7623C21.3979 17.7623 21.6489 17.5087 21.6496 17.1952L21.6596 13.0193C21.6595 13.0179 21.6595 13.0165 21.6595 13.015Z" fill="white"/>
<path d="M18.8236 11.3014C19.4657 11.3014 19.9861 10.774 19.9861 10.1234C19.9861 9.4728 19.4657 8.94537 18.8236 8.94537C18.1816 8.94537 17.6611 9.4728 17.6611 10.1234C17.6611 10.774 18.1816 11.3014 18.8236 11.3014Z" fill="white"/>
<path d="M16.2132 16.9906C16.2023 16.9627 15.1276 14.1837 14.734 13.0229C14.4787 12.2701 14.0506 11.8884 13.4616 11.8884C12.6354 11.8884 12.3687 11.8884 11.5551 11.8884C10.9661 11.8884 10.5381 12.2701 10.2827 13.0229C9.88705 14.1896 8.98858 16.6806 8.97953 16.7056C8.87517 16.9949 9.02196 17.3151 9.30741 17.4208C9.59305 17.5266 9.9089 17.3777 10.0132 17.0886C10.0209 17.0674 10.6661 15.2785 11.1068 14.0143C11.0774 14.2575 11.1707 13.7432 10.3252 18.1667C10.2885 18.3585 10.4344 18.5357 10.6253 18.5357C10.7438 18.5357 10.886 18.5357 11.0452 18.5357V22.5804C11.0452 22.95 11.3408 23.2496 11.7055 23.2496C12.0702 23.2496 12.3658 22.95 12.3658 22.5804V18.5357C12.4608 18.5357 12.556 18.5357 12.6509 18.5357V22.5804C12.6509 22.95 12.9466 23.2496 13.3113 23.2496C13.676 23.2496 13.9716 22.95 13.9716 22.5804V18.5357C14.1308 18.5357 14.273 18.5357 14.3915 18.5357C14.5834 18.5357 14.7282 18.3582 14.6916 18.1667L14.3796 16.5343C13.8723 13.8804 13.9394 14.2578 13.9077 13.9954C14.3822 15.3125 15.1507 17.2997 15.1886 17.3977C15.2995 17.6843 15.6187 17.8257 15.9018 17.7133C16.1847 17.6009 16.3241 17.2773 16.2132 16.9906Z" fill="white"/>
<path d="M12.5073 9.20865C11.8774 9.20865 11.3668 9.72604 11.3668 10.3643C11.3668 11.0033 11.8786 11.5199 12.5073 11.5199C13.1329 11.5199 13.6477 11.0058 13.6477 10.3643C13.6477 9.72604 13.1371 9.20865 12.5073 9.20865Z" fill="white"/>
<path d="M16.1651 9.04065C15.9165 9.04065 15.703 9.19194 15.6086 9.40843C15.5142 9.19194 15.3007 9.04065 15.0521 9.04065C14.7161 9.04065 14.4436 9.31671 14.4436 9.65726C14.4437 10.3256 15.2876 10.9986 15.5389 11.1841C15.5805 11.2149 15.6368 11.2148 15.6784 11.1841C15.9298 10.9985 16.7736 10.3256 16.7736 9.65726C16.7736 9.31673 16.5012 9.04065 16.1651 9.04065Z" fill="white"/>
</g>
<defs>
<clipPath id="clip0_1_203">
<rect width="13.4185" height="14.3131" fill="white" transform="translate(8.94678 8.94537)"/>
</clipPath>
</defs>
</svg>
