<svg width="21" height="21" viewBox="0 0 21 21" fill="none" xmlns="http://www.w3.org/2000/svg">
<path fill-rule="evenodd" clip-rule="evenodd" d="M8.127 13.4563C4.283 13.4563 1 14.0373 1 16.3653C1 18.6923 4.262 19.2953 8.127 19.2953C11.971 19.2953 15.254 18.7133 15.254 16.3863C15.254 14.0593 11.992 13.4563 8.127 13.4563Z" stroke="white" stroke-width="1.5" stroke-linecap="round" stroke-linejoin="round"/>
<path fill-rule="evenodd" clip-rule="evenodd" d="M8.12702 10.136C10.663 10.136 12.695 8.103 12.695 5.568C12.695 3.032 10.663 1 8.12702 1C5.59202 1 3.55902 3.032 3.55902 5.568C3.55902 8.103 5.59202 10.136 8.12702 10.136Z" stroke="white" stroke-width="1.5" stroke-linecap="round" stroke-linejoin="round"/>
<path d="M17.4537 6.9192V10.9292" stroke="white" stroke-width="1.5" stroke-linecap="round" stroke-linejoin="round"/>
<path d="M19.4996 8.9241H15.4096" stroke="white" stroke-width="1.5" stroke-linecap="round" stroke-linejoin="round"/>
</svg>
