<svg width="21" height="21" viewBox="0 0 21 21" fill="none" xmlns="http://www.w3.org/2000/svg">
<path fill-rule="evenodd" clip-rule="evenodd" d="M6.41044 11.8214C5.79791 11.8214 5.30029 11.3237 5.30029 10.7112C5.30029 10.1005 5.79791 9.60288 6.41044 9.60288C7.02296 9.60288 7.52058 10.1005 7.52058 10.7112C7.52058 11.3237 7.02296 11.8214 6.41044 11.8214ZM10.7261 11.8215C10.1136 11.8215 9.61598 11.3238 9.61598 10.7113C9.61598 10.1006 10.1136 9.60298 10.7261 9.60298C11.3387 9.60298 11.8363 10.1006 11.8363 10.7113C11.8363 11.3238 11.3387 11.8215 10.7261 11.8215ZM13.9318 10.7113C13.9318 11.3238 14.4294 11.8215 15.0419 11.8215C15.6545 11.8215 16.1521 11.3238 16.1521 10.7113C16.1521 10.1006 15.6545 9.60298 15.0419 9.60298C14.4294 9.60298 13.9318 10.1006 13.9318 10.7113Z" fill="white"/>
<path fill-rule="evenodd" clip-rule="evenodd" d="M10.519 1C4.9995 1 1 5.50881 1 10.5143C1 12.1127 1.4655 13.7577 2.2825 15.2609C2.4345 15.5093 2.4535 15.8223 2.349 16.1182L1.7125 18.2494C1.57 18.7631 2.007 19.1428 2.4915 18.9905L4.4105 18.4206C4.933 18.2494 5.3415 18.4673 5.826 18.7631C7.213 19.5804 8.942 20 10.5 20C15.212 20 20 16.356 20 10.4857C20 5.42319 15.915 1 10.519 1Z" stroke="white" stroke-width="1.5" stroke-linecap="round" stroke-linejoin="round"/>
</svg>
