<svg width="19" height="20" viewBox="0 0 19 20" fill="none" xmlns="http://www.w3.org/2000/svg">
<path d="M0.873095 5.16335C1.07736 5.12379 1.28936 5.16536 1.46215 5.27888C1.80347 5.50552 1.90243 5.95394 1.68701 6.29776L1.6305 6.40887C1.41692 6.89799 1.60769 7.47657 2.09177 7.74704C2.48345 7.98141 2.80585 8.31138 3.02722 8.70444C3.71653 9.94093 3.28874 11.4882 2.05579 12.2178C1.53447 12.5091 1.35333 13.1577 1.65103 13.6671L2.27167 14.7123C2.41288 14.9614 2.65203 15.1435 2.93385 15.2164C3.21567 15.2894 3.51576 15.2469 3.76478 15.0988C4.16629 14.8714 4.62284 14.7531 5.08699 14.7563C6.57728 14.7563 7.78539 15.936 7.78539 17.3913C7.79033 17.9797 8.28019 18.4541 8.88274 18.4541L8.87375 18.4717C9.15332 18.4717 9.41166 18.6173 9.55144 18.8538C9.69123 19.0902 9.69123 19.3815 9.55144 19.6179C9.41166 19.8544 9.15332 20 8.87375 20C7.38346 20 6.17535 18.8202 6.17535 17.365C6.17777 17.1797 6.12799 16.9974 6.03143 16.8379C5.72964 16.3278 5.06266 16.1512 4.53832 16.4427L4.37847 16.5212C3.14151 17.0796 1.65654 16.6479 0.940455 15.4941L0.328819 14.4488C-0.360497 13.2123 0.0672967 11.6651 1.30024 10.9354C1.46366 10.8416 1.59987 10.7085 1.69601 10.549C1.8764 10.3034 1.94123 9.99452 1.87428 9.69949C1.80733 9.40446 1.61494 9.15121 1.34522 9.00307L1.19531 8.90769C0.07856 8.145 -0.286802 6.67466 0.373792 5.48968L0.4504 5.39452C0.561992 5.2765 0.70968 5.195 0.873095 5.16335ZM17.0016 7.70192C17.3562 7.57766 17.7597 7.71243 17.9584 8.03689C18.1782 8.39846 18.0576 8.86557 17.6885 9.08213C17.5251 9.17601 17.3889 9.30902 17.2927 9.4686C17.1462 9.71296 17.1055 10.0043 17.1798 10.2781C17.2541 10.5518 17.4372 10.7853 17.6885 10.9267C18.9613 11.6717 19.3792 13.2805 18.624 14.5279L18.0123 15.5731L17.9146 15.7195C17.1336 16.81 15.6279 17.1668 14.4145 16.5217C14.078 16.3234 13.6577 16.3193 13.3172 16.5111C12.9768 16.7029 12.77 17.0603 12.7774 17.444C12.7344 17.8368 12.3949 18.1347 11.9904 18.1347C11.5859 18.1347 11.2464 17.8368 11.2034 17.444C11.2227 16.5231 11.733 15.6789 12.5494 15.2174C13.3658 14.756 14.3696 14.7443 15.197 15.1866C15.4456 15.3326 15.7442 15.3738 16.0245 15.3008C16.3043 15.2242 16.5428 15.0448 16.6901 14.8002L17.3017 13.7549C17.4479 13.5119 17.4883 13.2219 17.414 12.9496C17.3396 12.6772 17.1566 12.4453 16.906 12.3057C16.4845 12.0549 16.1445 11.6924 15.9256 11.2604C15.2362 10.0239 15.664 8.47671 16.897 7.74704L17.0016 7.70192ZM9.49438 6.70179C10.3905 6.69947 11.2508 7.04546 11.8853 7.66342C12.5198 8.28139 12.8764 9.12051 12.8764 9.99561L12.8708 10.1951C12.7967 11.4511 11.9952 12.5648 10.7949 13.0531C9.53138 13.567 8.07526 13.2866 7.10615 12.3428C6.13704 11.3989 5.84604 9.97775 6.36897 8.74258C6.89191 7.50741 8.12567 6.70179 9.49438 6.70179ZM9.49438 8.24769C8.50086 8.24769 7.69545 9.03419 7.69545 10.0044C7.69545 10.9746 8.50086 11.7611 9.49438 11.7611C10.4879 11.7611 11.2933 10.9746 11.2933 10.0044L11.2873 9.86032C11.2123 8.95751 10.4382 8.24769 9.49438 8.24769ZM10.115 0C11.6053 0 12.8134 1.17975 12.8134 2.63505C12.811 2.82028 12.8608 3.0026 12.9573 3.16206C13.1006 3.40892 13.339 3.5896 13.6194 3.66384C13.8999 3.73808 14.1991 3.69972 14.4504 3.55731C15.7167 2.88418 17.3011 3.30193 18.0483 4.50593C18.2548 4.87335 18.1278 5.33444 17.7605 5.55116C17.3872 5.75928 16.912 5.6384 16.6901 5.27888L16.6194 5.1754C16.2908 4.74961 15.6817 4.62035 15.197 4.8924C14.371 5.33407 13.369 5.32329 12.5532 4.86395C11.7373 4.40461 11.2258 3.56317 11.2034 2.64383C11.2131 2.35592 11.1028 2.07648 10.8976 1.8695C10.6924 1.66252 10.41 1.54574 10.115 1.54589H8.88274C8.58697 1.54581 8.30369 1.66232 8.0971 1.86901C7.89051 2.07571 7.77812 2.35509 7.78539 2.64383C7.77705 3.56818 7.26507 4.41819 6.44182 4.87447C5.61856 5.33075 4.60873 5.3242 3.79176 4.85727L3.75578 4.82213L3.66924 4.76137C3.37176 4.52112 3.29447 4.09717 3.50393 3.76812C3.73244 3.40914 4.21569 3.29903 4.58329 3.52218C4.74738 3.61568 4.93305 3.66705 5.12297 3.6715C5.41407 3.68339 5.69806 3.58174 5.91235 3.38897C6.12663 3.19619 6.25361 2.92811 6.26529 2.64383C6.25976 1.21545 7.42066 0.0428416 8.88274 0H10.115Z" fill="white"/>
</svg>
